# xmcd
# 
# Track frame offsets:
#     150
#     14702
#     29254
# 
# Disc length: 582
# 
# Revision: 1
# Processed by: cddbd v1.5.2PL0 Copyright (c) Steve Scherf et al.
# Submitted via: fre:ac v1.0.31
# 
DISCID=1e024403
DTITLE=Various Artist - Tama and Friends
DYEAR=2018
DGENRE=アニメ
TTITLE0=笠原弘子 - Tama and Friends
TTITLE1=笠原弘子×福島清香 - Tama and Friends
TTITLE2=笠原弘子 - Tama and Friends（Instrumental）
EXTD=
EXTT0=
EXTT1=
EXTT2=
PLAYORDER=
